<svg version="1.1" viewBox="0.0 0.0 960.0 960.0" fill="none" stroke="none" stroke-linecap="square" stroke-miterlimit="10" xmlns:xlink="http://www.w3.org/1999/xlink" xmlns="http://www.w3.org/2000/svg"><clipPath id="p.0"><path d="m0 0l960.0 0l0 960.0l-960.0 0l0 -960.0z" clip-rule="nonzero"/></clipPath><g clip-path="url(#p.0)"><path fill="#000000" fill-opacity="0.0" d="m0 0l960.0 0l0 960.0l-960.0 0z" fill-rule="evenodd"/><path fill="#FFFFE6" d="m145.92505 308.04373c0 -3.4422607 -0.44007874 -2.2563477 -2.708664 -6.149597c-2.2686005 -3.89328 -4.975067 -7.363098 -10.902893 -17.209991c-5.9278183 -9.846893 -17.559929 -29.242767 -24.66404 -41.871384c-7.1041107 -12.628601 -12.877075 -22.18985 -17.960632 -33.90027c-5.0835495 -11.710403 -8.935692 -21.472 -12.54068 -36.362198c-3.604988 -14.890198 -7.2576523 -35.79265 -9.089241 -52.979004c-1.8315811 -17.186348 -2.1089249 -34.308395 -1.9002609 -50.139107c0.20866394 -15.830708 1.2161026 -33.922573 3.1522293 -44.845146c1.9361343 -10.922572 5.068245 -18.548119 8.464569 -20.690289c3.3963242 -2.1421695 8.738846 3.8009627 11.9133835 7.83727c3.1745453 4.0363083 2.0713043 1.1679792 7.1338577 16.380577c5.062561 15.212597 14.148735 49.23097 23.24147 74.89502c9.092743 25.664032 21.038498 57.621613 31.314957 79.08923c10.276474 21.467636 21.905518 37.565613 30.343842 49.716537c8.438324 12.150925 14.682846 20.112854 20.286087 23.18898c5.603241 3.0761108 8.099731 -2.3657074 13.333328 -4.7322845c5.233597 -2.3665771 8.818466 -6.6706085 18.068253 -9.467194c9.249771 -2.796585 21.010498 -5.663162 37.43045 -7.312332c16.419922 -1.6491699 44.38318 -3.3718262 61.089233 -2.5826874c16.706024 0.78915405 23.730957 1.6531067 39.146973 7.3175964c15.416016 5.6644745 42.3071 22.726578 53.34909 26.669296c11.041992 3.942688 10.752411 -0.07348633 12.902893 -3.0131226c2.1504822 -2.9396362 -0.5739441 -5.3040466 0 -14.62468c0.5739136 -9.320648 1.2208862 -25.596237 3.443573 -41.29921c2.2226562 -15.702988 4.9444275 -36.78566 9.8923645 -52.91864c4.9479675 -16.13298 10.473755 -30.1846 19.795288 -43.879265c9.321533 -13.694664 23.30008 -28.968071 36.13385 -38.28871c12.833771 -9.320652 27.531952 -13.333336 40.868744 -17.635174c13.336853 -4.301838 22.589722 -5.59449 39.152283 -8.175854c16.5625 -2.5813637 41.223083 -5.0901146 60.223083 -7.312336c19.0 -2.2222214 38.6474 -4.5153084 53.776917 -6.020996c15.129456 -1.5056877 23.59143 -4.159668 37.0 -3.0131245c13.408569 1.1465435 29.784302 4.181978 43.451416 9.892389c13.667114 5.710411 27.874878 15.466316 38.55121 24.370079c10.67627 8.903759 18.619385 19.20647 25.50653 29.052494c6.887146 9.846016 10.65094 16.303589 15.816284 30.02362c5.165344 13.720032 11.624695 36.15529 15.175842 52.296585c3.5512085 16.141296 4.302307 25.935257 6.1312256 44.551178c1.8289795 18.615936 3.279541 46.571762 4.8425293 67.14436c1.5629883 20.572601 3.5634155 37.804016 4.5354614 56.29135c0.97198486 18.487305 3.7340088 39.790436 1.2965698 54.632538c-2.437439 14.842072 -10.184631 24.812317 -15.921265 34.419952c-5.7366333 9.607605 -8.389343 15.912506 -18.498718 23.225708c-10.109314 7.313202 -19.858215 15.490814 -42.15747 20.653534c-22.299194 5.1627502 -73.85516 8.458466 -91.63776 10.322845c-17.782593 1.8643799 -12.6203 -2.0048218 -15.057739 0.8635254c-2.437439 2.8683167 0.8630371 5.37619 0.43304443 16.346436c-0.42999268 10.970276 -0.3595581 27.319336 -3.0131226 49.475098c-2.6535645 22.1557 -8.534546 60.730957 -12.908142 83.45929c-4.373596 22.728333 -10.824158 33.336853 -13.333313 52.910767c-2.5092163 19.573914 -3.5861816 43.953613 -1.7218018 64.53284c1.8643799 20.579163 7.0288696 42.23535 12.908142 58.94226c5.8792725 16.70691 16.058167 31.978516 22.367432 41.299194c6.309326 9.320618 12.260742 7.5266724 15.48822 14.624634c3.227478 7.0980225 5.974182 19.239319 3.876648 27.963257c-2.0975952 8.723999 -9.629517 19.940125 -16.461975 24.380615c-6.8324585 4.4404907 -11.56604 2.7462769 -24.532776 2.2624512c-12.966797 -0.48382568 -41.161865 -1.3989258 -53.26776 -5.165344c-12.105835 -3.7664185 -14.579163 -6.187683 -19.367432 -17.433105c-4.788269 -11.245361 -6.187683 -32.122864 -9.362183 -50.039368c-3.1745605 -17.916443 -5.9488525 -35.871338 -9.685059 -57.45929c-3.736206 -21.587952 -11.039795 -52.026245 -12.7323 -72.06824c-1.6924438 -20.041992 1.4309082 -34.704285 2.5774536 -48.183716c1.1465454 -13.479431 3.4418335 -24.375793 4.301819 -32.692932c0.8600464 -8.317139 3.3674927 -14.341614 0.85827637 -17.20996c-2.5091553 -2.8683472 -10.67981 -0.6447754 -15.913391 0c-5.2335815 0.6447754 -9.018799 2.3674316 -15.488159 3.8687744c-6.4694214 1.5012817 -16.673279 4.0892334 -23.328125 5.139099c-6.654846 1.0498657 -11.324585 0.51660156 -16.601013 1.1600952c-5.2764893 0.64349365 -10.527161 1.9580078 -15.05777 2.7008057c-4.530609 0.7427368 -9.603241 -0.54418945 -12.125977 1.7558594c-2.5227356 2.3001099 -0.93130493 3.297058 -3.010498 12.044678c-2.0791626 8.747559 -6.453186 24.236206 -9.464569 40.440918c-3.011383 16.204712 -7.4558105 37.213013 -8.603668 56.787415c-1.1478577 19.57434 0.28259277 44.16754 1.7165222 60.658752c1.43396 16.491272 4.592743 27.103699 6.887146 38.288757c2.294403 11.184998 3.7244263 20.647827 6.8792725 28.821533c3.1548462 8.173645 9.235779 16.105408 12.049866 20.220459c2.814087 4.1150513 3.4006958 3.1071777 4.834656 4.4697876c1.4339294 1.3626709 2.2803955 1.0805054 3.769043 3.7060547c1.4885864 2.6255493 4.804016 5.737549 5.1627197 12.047241c0.3587036 6.3096924 1.3630371 19.070862 -3.010498 25.811035c-4.373596 6.7401733 -9.464569 12.33551 -23.230988 14.629883c-13.766388 2.2944336 -44.524933 2.2196045 -59.367462 -0.86346436c-14.842499 -3.08313 -23.664032 -9.533264 -29.687653 -17.635193c-6.0236206 -8.101929 -4.804474 -14.77124 -6.454071 -30.97638c-1.6495972 -16.20514 -2.5118103 -52.559937 -3.443573 -66.25458c-0.9317627 -13.694702 0.4335022 -13.332031 -2.1469727 -15.913391c-2.5805054 -2.5813599 -7.551178 0.15966797 -13.335968 0.4251709c-5.7847595 0.26556396 -13.342072 3.4624023 -21.372711 1.1679688c-8.030609 -2.2943726 -20.048096 0.67541504 -26.811005 -14.934387c-6.762909 -15.609802 -10.038055 -55.99518 -13.766418 -78.724365c-3.7283325 -22.729248 -6.5957947 -36.42743 -8.603668 -57.65094c-2.0078735 -21.22351 -4.016632 -50.475037 -3.443573 -69.69031c0.5730591 -19.21521 5.5910034 -35.275574 6.881897 -45.601013c1.2908936 -10.3255005 3.730957 -9.75415 0.8635254 -16.351746c-2.8674622 -6.597534 -9.631256 -16.58966 -18.068237 -23.233582c-8.437012 -6.643921 -24.929138 -16.439636 -32.553833 -16.629913c-7.6246643 -0.1902771 -7.745392 4.302704 -13.194214 15.48819c-5.448822 11.185486 -11.66011 35.850403 -19.498688 51.624695c-7.8385773 15.774231 -20.075684 29.828491 -27.532806 43.020996c-7.457138 13.192444 -13.385391 27.817139 -17.209976 36.13385c-3.824585 8.316711 -3.4431305 1.2418823 -5.7375336 13.766418c-2.294403 12.524475 -7.2646484 44.650024 -8.02887 61.380554c-0.7642212 16.73053 -0.093170166 26.384094 3.443573 39.002625c3.5367432 12.61853 13.796143 28.53717 17.776901 36.70868c3.9807587 8.171448 4.291336 7.444397 6.107605 12.32019c1.8162842 4.8757935 3.9916992 11.05249 4.790039 16.934387c0.7983246 5.881897 2.867447 13.481201 0 18.356934c-2.8674622 4.8757935 -4.4899445 8.029297 -17.204727 10.897644c-12.714783 2.8683472 -43.308838 7.7458496 -59.083992 6.312317c-15.775154 -1.4334717 -28.683731 -0.09490967 -35.566933 -14.91333c-6.8832016 -14.818481 -3.8206482 -45.79486 -5.7322845 -73.997375c-1.9116364 -28.202576 -4.781273 -72.082275 -5.7375336 -95.217896c-0.95625305 -23.13556 -4.875763 -20.077393 0 -43.595764c4.8757706 -23.518372 21.893265 -58.70038 29.254593 -97.514465c7.3613358 -38.814056 8.8897705 -99.32895 14.913391 -135.37006c6.0236206 -36.041138 17.238846 -64.97989 21.228348 -80.87665c3.989502 -15.896759 2.708664 -11.061676 2.708664 -14.503937z" fill-rule="evenodd"/></g></svg>