<svg width="961" height="960" viewBox="0 0 961 960" fill="none" xmlns="http://www.w3.org/2000/svg">
<g clip-path="url(#clip0_145_2)">
<mask id="mask0_145_2" style="mask-type:luminance" maskUnits="userSpaceOnUse" x="0" y="0" width="961" height="960">
<path d="M0.5 0H960.5V960H0.5V0Z" fill="white"/>
</mask>
<g mask="url(#mask0_145_2)">
<path fill-rule="evenodd" clip-rule="evenodd" d="M146.425 308.044C146.425 304.602 145.985 305.787 143.716 301.894C141.448 298.001 138.741 294.531 132.813 284.684C126.886 274.837 115.253 255.441 108.149 242.813C101.045 230.184 95.2723 220.623 90.1888 208.913C85.1052 197.202 81.2531 187.441 77.6481 172.55C74.0431 157.66 70.3904 136.758 68.5588 119.571C66.7273 102.385 66.4499 85.2629 66.6586 69.4322C66.8672 53.6015 67.8747 35.5097 69.8108 24.5871C71.7469 13.6645 74.879 6.03896 78.2754 3.89679C81.6717 1.75462 87.0142 7.69775 90.1888 11.7341C93.3633 15.7704 92.2601 12.902 97.3226 28.1146C102.385 43.3272 111.471 77.3456 120.564 103.01C129.657 128.674 141.603 160.631 151.879 182.099C162.156 203.567 173.785 219.665 182.223 231.815C190.661 243.966 196.906 251.928 202.509 255.004C208.112 258.081 210.609 252.639 215.842 250.272C221.076 247.906 224.661 243.602 233.911 240.805C243.16 238.008 254.921 235.142 271.341 233.493C287.761 231.843 315.724 230.121 332.43 230.91C349.136 231.699 356.161 232.563 371.577 238.228C386.993 243.892 413.884 260.954 424.926 264.897C435.968 268.84 435.679 264.823 437.829 261.884C439.98 258.944 437.255 256.58 437.829 247.259C438.403 237.938 439.05 221.663 441.273 205.96C443.495 190.257 446.217 169.174 451.165 153.041C456.113 136.908 461.639 122.857 470.96 109.162C480.282 95.4672 494.26 80.1938 507.094 70.8732C519.928 61.5525 534.626 57.5398 547.963 53.238C561.3 48.9362 570.553 47.6435 587.115 45.0621C603.678 42.4808 628.338 39.972 647.338 37.7498C666.338 35.5276 685.986 33.2345 701.115 31.7288C716.245 30.2231 724.707 27.5691 738.115 28.7157C751.524 29.8622 767.9 32.8977 781.567 38.6081C795.234 44.3185 809.442 54.0744 820.118 62.9782C830.794 71.8819 838.737 82.1846 845.624 92.0306C852.512 101.877 856.275 108.334 861.441 122.054C866.606 135.774 873.065 158.21 876.617 174.351C880.168 190.492 880.919 200.286 882.748 218.902C884.577 237.518 886.027 265.474 887.59 286.046C889.153 306.619 891.154 323.85 892.126 342.338C893.098 360.825 895.86 382.128 893.422 396.97C890.985 411.812 883.238 421.783 877.501 431.39C871.764 440.998 869.112 447.303 859.002 454.616C848.893 461.929 839.144 470.107 816.845 475.27C794.546 480.432 742.99 483.728 725.207 485.592C707.425 487.457 712.587 483.588 710.149 486.456C707.712 489.324 711.012 491.832 710.582 502.802C710.152 513.773 710.223 530.122 707.569 552.277C704.916 574.433 699.035 613.008 694.661 635.737C690.288 658.465 683.837 669.074 681.328 688.647C678.819 708.221 677.742 732.601 679.606 753.18C681.47 773.759 686.635 795.416 692.514 812.123C698.393 828.829 708.572 844.101 714.882 853.422C721.191 862.742 727.142 860.948 730.37 868.046C733.597 875.144 736.344 887.286 734.247 896.01C732.149 904.734 724.617 915.95 717.785 920.39C710.952 924.831 706.219 923.137 693.252 922.653C680.285 922.169 652.09 921.254 639.984 917.487C627.878 913.721 625.405 911.3 620.617 900.054C615.828 888.809 614.429 867.931 611.254 850.015C608.08 832.098 605.306 814.144 601.569 792.556C597.833 770.968 590.53 740.529 588.837 720.487C587.145 700.445 590.268 685.783 591.414 672.304C592.561 658.824 594.856 647.928 595.716 639.611C596.576 631.294 599.084 625.269 596.575 622.401C594.065 619.532 585.895 621.756 580.661 622.401C575.428 623.046 571.642 624.768 565.173 626.27C558.704 627.771 548.5 630.359 541.845 631.409C535.19 632.458 530.52 631.925 525.244 632.569C519.967 633.212 514.717 634.527 510.186 635.27C505.656 636.012 500.583 634.725 498.06 637.025C495.537 639.326 497.129 640.322 495.05 649.07C492.97 657.818 488.596 673.306 485.585 689.511C482.574 705.716 478.129 726.724 476.981 746.298C475.834 765.873 477.264 790.466 478.698 806.957C480.132 823.448 483.291 834.061 485.585 845.246C487.879 856.431 489.31 865.894 492.464 874.067C495.619 882.241 501.7 890.173 504.514 894.288C507.328 898.403 507.915 897.395 509.349 898.758C510.783 900.12 511.629 899.838 513.118 902.464C514.607 905.089 517.922 908.201 518.281 914.511C518.639 920.821 519.644 933.582 515.27 940.322C510.897 947.062 505.806 952.658 492.039 954.952C478.273 957.246 447.514 957.172 432.672 954.088C417.829 951.005 409.008 944.555 402.984 936.453C396.96 928.351 398.18 921.682 396.53 905.477C394.88 889.272 394.018 852.917 393.086 839.222C392.155 825.528 393.52 825.89 390.939 823.309C388.359 820.728 383.388 823.469 377.603 823.734C371.819 824 364.261 827.196 356.231 824.902C348.2 822.608 336.183 825.577 329.42 809.968C322.657 794.358 319.382 753.972 315.653 731.243C311.925 708.514 309.058 694.816 307.05 673.592C305.042 652.369 303.033 623.117 303.606 603.902C304.179 584.687 309.197 568.626 310.488 558.301C311.779 547.976 314.219 548.547 311.352 541.949C308.484 535.352 301.72 525.36 293.283 518.716C284.846 512.072 268.354 502.276 260.729 502.086C253.105 501.895 252.984 506.388 247.535 517.574C242.086 528.759 235.875 553.424 228.037 569.199C220.198 584.973 207.961 599.027 200.504 612.22C193.047 625.412 187.118 640.037 183.294 648.354C179.469 656.67 179.851 649.595 177.556 662.12C175.262 674.644 170.292 706.77 169.527 723.5C168.763 740.231 169.434 749.885 172.971 762.503C176.508 775.122 186.767 791.04 190.748 799.212C194.729 807.383 195.039 806.656 196.855 811.532C198.672 816.408 200.847 822.584 201.645 828.466C202.444 834.348 204.513 841.948 201.645 846.823C198.778 851.699 197.156 854.853 184.441 857.721C171.726 860.589 141.132 865.467 125.357 864.033C109.582 862.6 96.673 863.938 89.7898 849.12C82.9066 834.301 85.9692 803.325 84.0575 775.123C82.1459 746.92 79.2763 703.04 78.32 679.905C77.3637 656.769 73.4442 659.827 78.32 636.309C83.1958 612.791 100.213 577.609 107.575 538.794C114.936 499.98 116.464 439.465 122.488 403.424C128.512 367.383 139.727 338.444 143.716 322.548C147.706 306.651 146.425 311.486 146.425 308.044Z" fill="#FF69B4"/>
</g>
</g>
<defs>
<clipPath id="clip0_145_2">
<rect width="960" height="960" fill="white" transform="translate(0.5)"/>
</clipPath>
</defs>
</svg>
