<svg width="400" height="400" viewBox="0 0 400 400" fill="none" xmlns="http://www.w3.org/2000/svg">
<g clip-path="url(#clip0_1_2)">
<path d="M290 200H310V390C310 395.523 305.523 400 300 400C294.477 400 290 395.523 290 390V200Z" fill="#FFFFCD"/>
<path d="M390 290C395.523 290 400 294.477 400 300C400 305.523 395.523 310 390 310H200V290L390 290Z" fill="#FFFFCD"/>
<rect x="186.929" y="201.071" width="20" height="249.907" rx="10" transform="rotate(-45 186.929 201.071)" fill="#FFFFCD"/>
<rect x="363.64" y="222.218" width="20" height="200" rx="10" transform="rotate(45 363.64 222.218)" fill="#FFFFCD"/>
<path d="M90 10C90 4.47716 94.4772 0 100 0C105.523 0 110 4.47715 110 10V200H90V10Z" fill="#FFFFCD"/>
<path d="M200 90V110L10 110C4.47716 110 6.67572e-06 105.523 6.67572e-06 100C6.67572e-06 94.4772 4.47716 90 10 90L200 90Z" fill="#FFFFCD"/>
<rect x="290" width="20" height="200" fill="#5E91FF"/>
<rect x="400" y="90" width="20" height="200" transform="rotate(90 400 90)" fill="#5E91FF"/>
<path d="M90 200H110V390C110 395.523 105.523 400 100 400C94.4772 400 90 395.523 90 390V200Z" fill="#FFFFCD"/>
<path d="M200 290V310H10C4.47716 310 6.67572e-06 305.523 6.67572e-06 300C6.67572e-06 294.477 4.47716 290 10 290H200Z" fill="#FFFFCD"/>
<rect x="22.218" y="36.3605" width="20" height="250" rx="10" transform="rotate(-45 22.218 36.3605)" fill="#FFFFCD"/>
<rect x="163.64" y="22.2182" width="20" height="200" rx="10" transform="rotate(45 163.64 22.2182)" fill="#FFFFCD"/>
<rect x="222.218" y="36.3605" width="20" height="200" transform="rotate(-45 222.218 36.3605)" fill="#5E91FF"/>
<path d="M363.64 22.2182L377.782 36.3603L-16.3577 430.5C-20.2629 434.405 -26.5946 434.405 -30.4999 430.5C-34.4051 426.595 -34.4051 420.263 -30.4999 416.358L363.64 22.2182Z" fill="#5E91FF"/>
<rect x="22.218" y="236.36" width="20" height="200" rx="10" transform="rotate(-45 22.218 236.36)" fill="#FFFFCD"/>
<rect x="163.64" y="222.218" width="20" height="200" rx="10" transform="rotate(45 163.64 222.218)" fill="#FFFFCD"/>
<circle cx="300.5" cy="100.5" r="37.5" fill="#5E91FF"/>
</g>
<defs>
<clipPath id="clip0_1_2">
<rect width="400" height="400" fill="white"/>
</clipPath>
</defs>
</svg>
